<svg width="243" height="82" viewBox="0 0 243 82" fill="none" xmlns="http://www.w3.org/2000/svg">
<path d="M85.3486 0V82M32.3295 56.2985V41.6119M32.3295 41.6119V40.3881C32.3295 39.0362 33.4084 37.9403 34.7394 37.9403H39.5593C40.8903 37.9403 41.9693 39.0362 41.9693 40.3881V41.6119M32.3295 41.6119H41.9693M41.9693 41.6119V56.2985M20.2797 47.7313H21.4847C22.8156 47.7313 23.8946 46.6354 23.8946 45.2836V42.8358M20.2797 47.7313H19.0747C17.7437 47.7313 16.6647 46.6354 16.6647 45.2836V42.8358M20.2797 47.7313V42.8358M20.2797 37.9403H19.0747C17.7437 37.9403 16.6647 39.0362 16.6647 40.3881V42.8358M20.2797 37.9403H21.4847C22.8156 37.9403 23.8946 39.0362 23.8946 40.3881V42.8358M20.2797 37.9403V42.8358M20.2797 42.8358H16.6647M20.2797 42.8358H23.8946M52.8141 37.9403H54.0191C55.3501 37.9403 56.4291 39.0362 56.4291 40.3881V42.8358M52.8141 37.9403H51.6091C50.2782 37.9403 49.1992 39.0362 49.1992 40.3881V42.8358M52.8141 37.9403V42.8358M52.8141 47.7313H51.6091C50.2782 47.7313 49.1992 46.6354 49.1992 45.2836V42.8358M52.8141 47.7313H54.0191C55.3501 47.7313 56.4291 46.6354 56.4291 45.2836V42.8358M52.8141 47.7313V42.8358M52.8141 42.8358H49.1992M52.8141 42.8358H56.4291M22.6662 22.7541L22.6896 14.6866M22.6896 14.6866V13.4627C22.6896 12.1108 23.7686 11.0149 25.0996 11.0149C26.4306 11.0149 27.5095 12.1108 27.5095 13.4627V14.6866M22.6896 14.6866H27.5095M27.5095 14.6866L27.4549 17.6587M45.5842 14.6866V13.4627C45.5842 12.1108 46.6632 11.0149 47.9942 11.0149C49.3252 11.0149 50.4042 12.1108 50.4042 13.4627V14.6866M45.5842 14.6866V17.1343M45.5842 14.6866H50.4042M50.4042 22.0299V14.6866M58.839 31.4712L38.89 9.27953C37.9486 8.23236 36.3309 8.21415 35.367 9.23986L12.5115 33.5593C12.0836 34.0146 11.8448 34.6199 11.8448 35.2494V56.2985M58.839 31.4712L62.4539 35.4925M58.839 31.4712V56.2985M3.40996 56.2985H11.8448M11.8448 56.2985H26.8163M58.839 56.2985H70.8888M58.839 56.2985H46.7892M26.3046 22.0299H32.4155M32.4155 22.0299L30.3911 24.6469M32.4155 22.0299L35.3354 18.2554C36.2743 17.0417 38.0712 17.0028 39.0602 18.1747L46.7892 27.3333M23.8946 24.4776L30.3911 24.6469M30.3911 24.6469L28.6285 26.9254M21.4847 26.9254H28.6285M28.6285 26.9254L26.8163 29.268M19.0747 30.597L25.7166 30.6895M25.7166 30.6895L23.8946 33.0448M25.7166 30.6895L26.8163 29.268M26.8163 29.268V56.2985M26.8163 56.2985H46.7892M46.7892 56.2985V27.3333M46.7892 27.3333L51.6091 33.0448M62.4539 56.2985V31.8209M62.4539 44.0597C62.4539 44.0597 65.363 44.7766 66.0689 44.0597C66.7747 43.3428 66.6294 43.6101 67.2739 42.8358C68.1355 41.8005 68.791 41.9142 69.6838 41.6119C70.5767 41.3097 71.4985 40.3733 72.0938 39.1642C72.5744 38.188 72.2789 35.5969 72.1473 34.635C72.1139 34.3912 72.0387 34.1567 71.9303 33.9365L70.9654 31.9765C70.9144 31.8729 70.871 31.766 70.8338 31.6565C70.5113 30.7077 69.8666 29.0311 69.6838 28.1493C69.3343 26.4629 68.4503 25.4335 67.2739 24.4776C66.0974 23.5217 63.6589 23.2537 63.6589 23.2537H60.6129C60.2388 23.2537 59.8698 23.3422 59.5351 23.5121L57.9838 24.3C57.7521 24.4176 57.5407 24.5725 57.3575 24.7585L55.2241 26.9254M11.8448 45.2836C11.8448 45.2836 7.99531 46.0005 7.28944 45.2836C6.58358 44.5667 6.72892 44.834 6.08447 44.0597C5.2228 43.0244 4.56736 43.1381 3.67451 42.8358C2.78166 42.5335 1.85978 41.5972 1.26455 40.3881C0.783974 39.4118 1.0794 36.8208 1.21105 35.8588C1.24441 35.6151 1.31967 35.3806 1.42804 35.1604L2.39293 33.2004C2.44393 33.0968 2.4873 32.9899 2.52451 32.8804C2.84708 31.9315 3.49171 30.255 3.67451 29.3731C4.02404 27.6868 4.90803 26.6574 6.08447 25.7015C7.2609 24.7456 9.6994 24.4776 9.6994 24.4776H12.7454C13.1196 24.4776 13.4886 24.5661 13.8232 24.736L15.3745 25.5239C15.6062 25.6415 15.8177 25.7963 16.0008 25.9824L18.1343 28.1493M11.8448 37.9403C11.8448 37.9403 11.2423 36.7164 9.43486 36.7164C8.58652 36.7164 7.62739 35.4925 7.62739 35.4925M14.2548 56.2985V41.6119M14.2548 41.6119V31.8209M14.2548 41.6119H11.8448" stroke="white" stroke-width="2"/>
<path d="M99.6974 71.1767V81.6244H98.427V71.1767H99.6974Z" fill="white"/>
<path d="M106.909 70.9574H108.425L111.991 79.6298H112.113L115.679 70.9574H117.195V81.4051H116.007V73.4673H115.904L112.626 81.4051H111.478L108.2 73.4673H108.097V81.4051H106.909V70.9574Z" fill="white"/>
<path d="M132.651 76.1812C132.651 77.2831 132.451 78.2354 132.052 79.038C131.652 79.8406 131.104 80.4596 130.408 80.8949C129.711 81.3302 128.915 81.5479 128.02 81.5479C127.126 81.5479 126.33 81.3302 125.633 80.8949C124.937 80.4596 124.388 79.8406 123.989 79.038C123.589 78.2354 123.39 77.2831 123.39 76.1812C123.39 75.0793 123.589 74.127 123.989 73.3244C124.388 72.5218 124.937 71.9028 125.633 71.4675C126.33 71.0322 127.126 70.8145 128.02 70.8145C128.915 70.8145 129.711 71.0322 130.408 71.4675C131.104 71.9028 131.652 72.5218 132.052 73.3244C132.451 74.127 132.651 75.0793 132.651 76.1812ZM131.422 76.1812C131.422 75.2766 131.27 74.513 130.966 73.8907C130.665 73.2683 130.257 72.7973 129.742 72.4776C129.229 72.1579 128.656 71.998 128.02 71.998C127.385 71.998 126.81 72.1579 126.294 72.4776C125.782 72.7973 125.374 73.2683 125.07 73.8907C124.769 74.513 124.619 75.2766 124.619 76.1812C124.619 77.0859 124.769 77.8494 125.07 78.4717C125.374 79.0941 125.782 79.5652 126.294 79.8848C126.81 80.2045 127.385 80.3644 128.02 80.3644C128.656 80.3644 129.229 80.2045 129.742 79.8848C130.257 79.5652 130.665 79.0941 130.966 78.4717C131.27 77.8494 131.422 77.0859 131.422 76.1812ZM127.467 69.8963L128.717 67.5292H130.131L128.533 69.8963H127.467Z" fill="white"/>
<path d="M139.607 70.9574L142.721 79.7522H142.844L144.401 75.3548L145.959 70.9574H147.29L143.438 81.4051H142.127L138.275 70.9574H139.607Z" fill="white"/>
<path d="M152.65 81.4051V76.1812V70.9574H158.981V72.0797H153.92V75.6098H158.653V76.7322H153.92V80.2828H159.063V81.4051H152.65Z" fill="white"/>
<path d="M166.599 70.9574V81.4051H165.328V70.9574H166.599Z" fill="white"/>
<path d="M179.711 73.5693C179.649 73.0523 179.4 72.651 178.963 72.3653C178.526 72.0797 177.99 71.9368 177.354 71.9368C176.89 71.9368 176.484 72.0116 176.135 72.1613C175.79 72.3109 175.521 72.5167 175.326 72.7786C175.135 73.0404 175.039 73.338 175.039 73.6713C175.039 73.9502 175.106 74.19 175.239 74.3906C175.375 74.5879 175.55 74.7528 175.761 74.8855C175.973 75.0147 176.195 75.1218 176.427 75.2068C176.659 75.2885 176.873 75.3548 177.068 75.4058L178.133 75.6915C178.406 75.7629 178.71 75.8615 179.045 75.9874C179.383 76.1132 179.706 76.2849 180.013 76.5026C180.324 76.7169 180.58 76.9923 180.781 77.329C180.983 77.6657 181.084 78.0789 181.084 78.5687C181.084 79.1332 180.935 79.6434 180.638 80.0991C180.344 80.5548 179.914 80.917 179.347 81.1857C178.784 81.4544 178.099 81.5887 177.293 81.5887C176.542 81.5887 175.891 81.468 175.341 81.2265C174.795 80.985 174.365 80.6484 174.05 80.2164C173.74 79.7845 173.564 79.2829 173.523 78.7115H174.834C174.868 79.106 175.001 79.4325 175.234 79.691C175.469 79.9461 175.766 80.1365 176.125 80.2623C176.487 80.3848 176.876 80.446 177.293 80.446C177.778 80.446 178.213 80.3678 178.599 80.2113C178.985 80.0515 179.291 79.8304 179.516 79.5481C179.742 79.2625 179.854 78.9292 179.854 78.5483C179.854 78.2014 179.757 77.9191 179.562 77.7014C179.368 77.4838 179.111 77.3069 178.794 77.1709C178.476 77.0348 178.133 76.9158 177.764 76.8138L176.473 76.4465C175.654 76.2118 175.005 75.8768 174.527 75.4415C174.049 75.0062 173.81 74.4365 173.81 73.7325C173.81 73.1476 173.968 72.6374 174.286 72.2021C174.607 71.7634 175.037 71.4233 175.577 71.1818C176.12 70.937 176.726 70.8145 177.395 70.8145C178.072 70.8145 178.673 70.9352 179.199 71.1767C179.724 71.4148 180.141 71.7413 180.448 72.1562C180.759 72.5711 180.923 73.0421 180.94 73.5693H179.711Z" fill="white"/>
<path d="M108.452 5.0062H111.628V23.6774C111.628 25.3439 111.321 26.7595 110.706 27.9243C110.091 29.0892 109.225 29.9734 108.106 30.5771C106.988 31.1807 105.669 31.4826 104.149 31.4826C102.715 31.4826 101.438 31.2232 100.32 30.7046C99.2015 30.1775 98.3221 29.4292 97.6818 28.46C97.0415 27.4907 96.7213 26.3386 96.7213 25.0038H99.8461C99.8461 25.7435 100.03 26.3897 100.397 26.9423C100.772 27.4865 101.285 27.9116 101.934 28.2177C102.582 28.5237 103.321 28.6768 104.149 28.6768C105.063 28.6768 105.84 28.4855 106.48 28.1029C107.12 27.7203 107.607 27.1591 107.94 26.4194C108.281 25.6712 108.452 24.7572 108.452 23.6774V5.0062Z" fill="white"/>
<path d="M125.83 31.5336C123.935 31.5336 122.3 31.117 120.926 30.2837C119.56 29.442 118.505 28.2687 117.762 26.7638C117.028 25.2503 116.661 23.4903 116.661 21.4838C116.661 19.4772 117.028 17.7087 117.762 16.1783C118.505 14.6394 119.538 13.4405 120.862 12.5818C122.193 11.7146 123.747 11.2809 125.523 11.2809C126.548 11.2809 127.559 11.451 128.558 11.7911C129.557 12.1312 130.466 12.6838 131.286 13.449C132.106 14.2058 132.759 15.209 133.245 16.4589C133.732 17.7087 133.975 19.2477 133.975 21.0757V22.351H118.812V19.7493H130.902C130.902 18.644 130.68 17.6577 130.236 16.7905C129.8 15.9232 129.177 15.2388 128.366 14.7372C127.564 14.2355 126.616 13.9847 125.523 13.9847C124.319 13.9847 123.278 14.2823 122.398 14.8774C121.527 15.4641 120.857 16.2293 120.388 17.1731C119.918 18.1168 119.683 19.1286 119.683 20.2084V21.9429C119.683 23.4223 119.939 24.6764 120.452 25.7052C120.972 26.7255 121.694 27.5035 122.616 28.0391C123.538 28.5663 124.61 28.8298 125.83 28.8298C126.624 28.8298 127.342 28.7193 127.982 28.4982C128.631 28.2687 129.19 27.9286 129.66 27.478C130.129 27.0188 130.492 26.4492 130.748 25.769L133.668 26.5852C133.361 27.5715 132.844 28.4387 132.118 29.1869C131.393 29.9266 130.496 30.5048 129.429 30.9214C128.362 31.3295 127.162 31.5336 125.83 31.5336Z" fill="white"/>
<path d="M141.595 19.3412V31.1255H138.573V11.536H141.493V14.5969H141.749C142.21 13.6021 142.91 12.8029 143.849 12.1992C144.788 11.587 146.001 11.2809 147.486 11.2809C148.818 11.2809 149.983 11.553 150.982 12.0972C151.981 12.6328 152.758 13.449 153.313 14.5459C153.868 15.6342 154.146 17.0115 154.146 18.678V31.1255H151.123V18.8821C151.123 17.3431 150.722 16.1443 149.919 15.2856C149.117 14.4183 148.015 13.9847 146.615 13.9847C145.651 13.9847 144.788 14.193 144.028 14.6096C143.277 15.0262 142.684 15.6342 142.248 16.4334C141.813 17.2326 141.595 18.2019 141.595 19.3412Z" fill="white"/>
<path d="M159.668 31.1255V11.536H162.691V31.1255H159.668ZM161.205 8.27111C160.616 8.27111 160.108 8.0713 159.681 7.67169C159.263 7.27208 159.054 6.7917 159.054 6.23054C159.054 5.66938 159.263 5.189 159.681 4.78939C160.108 4.38978 160.616 4.18997 161.205 4.18997C161.794 4.18997 162.298 4.38978 162.716 4.78939C163.143 5.189 163.357 5.66938 163.357 6.23054C163.357 6.7917 163.143 7.27208 162.716 7.67169C162.298 8.0713 161.794 8.27111 161.205 8.27111Z" fill="white"/>
<path d="M182.16 15.9232L179.445 16.6884C179.274 16.2378 179.022 15.8 178.689 15.3748C178.365 14.9412 177.921 14.5841 177.357 14.3035C176.794 14.023 176.072 13.8827 175.193 13.8827C173.989 13.8827 172.986 14.159 172.183 14.7116C171.389 15.2558 170.992 15.9487 170.992 16.7905C170.992 17.5387 171.266 18.1296 171.812 18.5632C172.358 18.9968 173.212 19.3582 174.373 19.6473L177.293 20.3615C179.052 20.7866 180.362 21.437 181.225 22.3128C182.087 23.18 182.518 24.2981 182.518 25.6669C182.518 26.7893 182.194 27.7925 181.545 28.6768C180.905 29.561 180.008 30.2582 178.856 30.7684C177.703 31.2785 176.363 31.5336 174.834 31.5336C172.828 31.5336 171.167 31.1 169.853 30.2327C168.538 29.3655 167.705 28.0986 167.355 26.4322L170.224 25.718C170.497 26.7723 171.014 27.563 171.774 28.0901C172.542 28.6173 173.545 28.8808 174.783 28.8808C176.192 28.8808 177.31 28.5833 178.138 27.9881C178.975 27.3844 179.393 26.6617 179.393 25.82C179.393 25.1398 179.154 24.5701 178.676 24.111C178.198 23.6434 177.464 23.2948 176.474 23.0652L173.195 22.3C171.394 21.8749 170.07 21.216 169.225 20.3232C168.388 19.422 167.97 18.2954 167.97 16.9435C167.97 15.8382 168.282 14.8604 168.905 14.0102C169.537 13.16 170.395 12.4925 171.479 12.0079C172.572 11.5233 173.81 11.2809 175.193 11.2809C177.14 11.2809 178.668 11.7061 179.778 12.5563C180.896 13.4065 181.69 14.5288 182.16 15.9232Z" fill="white"/>
<path d="M201.001 15.9232L198.286 16.6884C198.115 16.2378 197.864 15.8 197.531 15.3748C197.206 14.9412 196.762 14.5841 196.199 14.3035C195.635 14.023 194.914 13.8827 194.034 13.8827C192.831 13.8827 191.827 14.159 191.025 14.7116C190.231 15.2558 189.834 15.9487 189.834 16.7905C189.834 17.5387 190.107 18.1296 190.654 18.5632C191.2 18.9968 192.054 19.3582 193.215 19.6473L196.135 20.3615C197.893 20.7866 199.204 21.437 200.066 22.3128C200.929 23.18 201.36 24.2981 201.36 25.6669C201.36 26.7893 201.035 27.7925 200.386 28.6768C199.746 29.561 198.85 30.2582 197.697 30.7684C196.545 31.2785 195.204 31.5336 193.676 31.5336C191.67 31.5336 190.009 31.1 188.694 30.2327C187.379 29.3655 186.547 28.0986 186.197 26.4322L189.066 25.718C189.339 26.7723 189.855 27.563 190.615 28.0901C191.384 28.6173 192.387 28.8808 193.625 28.8808C195.033 28.8808 196.152 28.5833 196.98 27.9881C197.817 27.3844 198.235 26.6617 198.235 25.82C198.235 25.1398 197.996 24.5701 197.518 24.111C197.04 23.6434 196.305 23.2948 195.315 23.0652L192.037 22.3C190.235 21.8749 188.912 21.216 188.067 20.3232C187.23 19.422 186.812 18.2954 186.812 16.9435C186.812 15.8382 187.123 14.8604 187.746 14.0102C188.378 13.16 189.236 12.4925 190.321 12.0079C191.413 11.5233 192.651 11.2809 194.034 11.2809C195.981 11.2809 197.509 11.7061 198.619 12.5563C199.738 13.4065 200.532 14.5288 201.001 15.9232Z" fill="white"/>
<path d="M213.9 31.5336C212.125 31.5336 210.567 31.1127 209.226 30.271C207.894 29.4292 206.853 28.2517 206.101 26.7382C205.359 25.2248 204.987 23.4563 204.987 21.4328C204.987 19.3922 205.359 17.611 206.101 16.089C206.853 14.5671 207.894 13.3853 209.226 12.5435C210.567 11.7018 212.125 11.2809 213.9 11.2809C215.676 11.2809 217.23 11.7018 218.562 12.5435C219.902 13.3853 220.944 14.5671 221.687 16.089C222.438 17.611 222.814 19.3922 222.814 21.4328C222.814 23.4563 222.438 25.2248 221.687 26.7382C220.944 28.2517 219.902 29.4292 218.562 30.271C217.23 31.1127 215.676 31.5336 213.9 31.5336ZM213.9 28.8298C215.249 28.8298 216.359 28.4855 217.23 27.7968C218.101 27.1081 218.746 26.2026 219.164 25.0803C219.582 23.958 219.791 22.7421 219.791 21.4328C219.791 20.1234 219.582 18.9033 219.164 17.7725C218.746 16.6417 218.101 15.7277 217.23 15.0305C216.359 14.3333 215.249 13.9847 213.9 13.9847C212.552 13.9847 211.442 14.3333 210.571 15.0305C209.7 15.7277 209.055 16.6417 208.637 17.7725C208.219 18.9033 208.01 20.1234 208.01 21.4328C208.01 22.7421 208.219 23.958 208.637 25.0803C209.055 26.2026 209.7 27.1081 210.571 27.7968C211.442 28.4855 212.552 28.8298 213.9 28.8298Z" fill="white"/>
<path d="M230.45 19.3412V31.1255H227.427V11.536H230.347V14.5969H230.603C231.064 13.6021 231.764 12.8029 232.704 12.1992C233.643 11.587 234.855 11.2809 236.341 11.2809C237.673 11.2809 238.838 11.553 239.837 12.0972C240.836 12.6328 241.613 13.449 242.168 14.5459C242.723 15.6342 243 17.0115 243 18.678V31.1255H239.978V18.8821C239.978 17.3431 239.576 16.1443 238.774 15.2856C237.971 14.4183 236.87 13.9847 235.47 13.9847C234.505 13.9847 233.643 14.193 232.883 14.6096C232.132 15.0262 231.538 15.6342 231.103 16.4334C230.667 17.2326 230.45 18.2019 230.45 19.3412Z" fill="white"/>
<path d="M98.427 62.2509V36.1317H101.603V59.4452H113.795V62.2509H98.427Z" fill="white"/>
<path d="M130.699 54.2417V42.6615H133.722V62.2509H130.699V58.935H130.494C130.033 59.9298 129.316 60.7758 128.343 61.473C127.37 62.1617 126.14 62.506 124.655 62.506C123.425 62.506 122.332 62.2382 121.376 61.7025C120.42 61.1584 119.669 60.3421 119.122 59.2538C118.576 58.157 118.303 56.7754 118.303 55.1089V42.6615H121.325V54.9049C121.325 56.3333 121.726 57.4726 122.529 58.3228C123.34 59.1731 124.373 59.5982 125.628 59.5982C126.379 59.5982 127.143 59.4069 127.92 59.0243C128.706 58.6417 129.363 58.055 129.893 57.2643C130.43 56.4736 130.699 55.466 130.699 54.2417Z" fill="white"/>
<path d="M147.248 62.659C145.404 62.659 143.816 62.2254 142.484 61.3582C141.153 60.4909 140.128 59.2964 139.411 57.7744C138.694 56.2525 138.335 54.5138 138.335 52.5582C138.335 50.5687 138.702 48.8129 139.437 47.291C140.179 45.7606 141.212 44.566 142.536 43.7073C143.868 42.84 145.421 42.4064 147.197 42.4064C148.58 42.4064 149.827 42.6615 150.937 43.1716C152.047 43.6818 152.956 44.396 153.665 45.3142C154.373 46.2325 154.813 47.3038 154.984 48.5281H151.961C151.731 47.6354 151.218 46.8446 150.424 46.156C149.639 45.4588 148.58 45.1102 147.248 45.1102C146.07 45.1102 145.037 45.4162 144.149 46.0284C143.27 46.6321 142.583 47.4866 142.087 48.5919C141.601 49.6887 141.358 50.9768 141.358 52.4562C141.358 53.9696 141.597 55.2875 142.075 56.4098C142.561 57.5321 143.244 58.4036 144.124 59.0243C145.012 59.645 146.053 59.9553 147.248 59.9553C148.034 59.9553 148.747 59.8193 149.387 59.5472C150.027 59.2751 150.57 58.884 151.014 58.3739C151.458 57.8637 151.773 57.2515 151.961 56.5373H154.984C154.813 57.6937 154.39 58.7352 153.716 59.662C153.05 60.5802 152.166 61.3114 151.065 61.8556C149.972 62.3912 148.7 62.659 147.248 62.659Z" fill="white"/>
<path d="M162.219 55.1089L162.168 51.3849H162.783L171.389 42.6615H175.128L165.959 51.895H165.703L162.219 55.1089ZM159.402 62.2509V36.1317H162.424V62.2509H159.402ZM171.901 62.2509L164.217 52.5582L166.369 50.4667L175.743 62.2509H171.901Z" fill="white"/>
<path d="M183.475 62.2509L177.481 42.6615H180.657L184.909 57.6597H185.114L189.315 42.6615H192.542L196.691 57.6086H196.896L201.148 42.6615H204.324L198.33 62.2509H195.359L191.056 47.2017H190.749L186.446 62.2509H183.475Z" fill="white"/>
<path d="M220.716 54.2417V42.6615H223.738V62.2509H220.716V58.935H220.511C220.05 59.9298 219.333 60.7758 218.36 61.473C217.386 62.1617 216.157 62.506 214.671 62.506C213.442 62.506 212.349 62.2382 211.393 61.7025C210.437 61.1584 209.685 60.3421 209.139 59.2538C208.593 58.157 208.319 56.7754 208.319 55.1089V42.6615H211.342V54.9049C211.342 56.3333 211.743 57.4726 212.545 58.3228C213.357 59.1731 214.39 59.5982 215.645 59.5982C216.396 59.5982 217.16 59.4069 217.937 59.0243C218.722 58.6417 219.38 58.055 219.909 57.2643C220.447 56.4736 220.716 55.466 220.716 54.2417ZM212.366 39.3966C211.828 39.3966 211.35 39.1925 210.932 38.7844C210.522 38.3678 210.317 37.8917 210.317 37.356C210.317 36.7693 210.522 36.2847 210.932 35.9021C211.35 35.511 211.828 35.3154 212.366 35.3154C212.955 35.3154 213.442 35.511 213.826 35.9021C214.219 36.2847 214.415 36.7693 214.415 37.356C214.415 37.8917 214.219 38.3678 213.826 38.7844C213.442 39.1925 212.955 39.3966 212.366 39.3966ZM219.743 39.3966C219.205 39.3966 218.727 39.1925 218.308 38.7844C217.899 38.3678 217.694 37.8917 217.694 37.356C217.694 36.7693 217.899 36.2847 218.308 35.9021C218.727 35.511 219.205 35.3154 219.743 35.3154C220.332 35.3154 220.818 35.511 221.203 35.9021C221.595 36.2847 221.792 36.7693 221.792 37.356C221.792 37.8917 221.595 38.3678 221.203 38.7844C220.818 39.1925 220.332 39.3966 219.743 39.3966Z" fill="white"/>
</svg>
