<svg width="668" height="226" viewBox="0 0 668 226" fill="none" xmlns="http://www.w3.org/2000/svg">
<path d="M234 0V226M87.5429 155.164V114.687M87.5429 114.687V111.313C87.5429 107.588 90.5234 104.567 94.2 104.567H107.514C111.191 104.567 114.171 107.588 114.171 111.313V114.687M87.5429 114.687H114.171M114.171 114.687V155.164M54.2571 131.552H57.5857C61.2624 131.552 64.2429 128.532 64.2429 124.806V118.06M54.2571 131.552H50.9286C47.2519 131.552 44.2714 128.532 44.2714 124.806V118.06M54.2571 131.552V118.06M54.2571 104.567H50.9286C47.2519 104.567 44.2714 107.588 44.2714 111.313V118.06M54.2571 104.567H57.5857C61.2624 104.567 64.2429 107.588 64.2429 111.313V118.06M54.2571 104.567V118.06M54.2571 118.06H44.2714M54.2571 118.06H64.2429M144.129 104.567H147.457C151.134 104.567 154.114 107.588 154.114 111.313V118.06M144.129 104.567H140.8C137.123 104.567 134.143 107.588 134.143 111.313V118.06M144.129 104.567V118.06M144.129 131.552H140.8C137.123 131.552 134.143 128.532 134.143 124.806V118.06M144.129 131.552H147.457C151.134 131.552 154.114 128.532 154.114 124.806V118.06M144.129 131.552V118.06M144.129 118.06H134.143M144.129 118.06H154.114M60.8497 62.7125L60.9143 40.4776M60.9143 40.4776V37.1045C60.9143 33.3786 63.8948 30.3582 67.5714 30.3582C71.2481 30.3582 74.2286 33.3786 74.2286 37.1045V40.4776M60.9143 40.4776H74.2286M74.2286 40.4776L74.0777 48.6691M124.157 40.4776V37.1045C124.157 33.3786 127.138 30.3582 130.814 30.3582C134.491 30.3582 137.471 33.3786 137.471 37.1045V40.4776M124.157 40.4776V46.5M124.157 40.4776H137.471M137.471 60.7164V40.4776M160.771 86.7377L105.665 25.5753C103.065 22.6892 98.5963 22.639 95.9335 25.4659L32.7988 92.4926C31.6167 93.7475 30.9572 95.4158 30.9572 97.1507V155.164M160.771 86.7377L170.757 97.8209M160.771 86.7377V155.164M7.65715 155.164H30.9572M30.9572 155.164H72.3135M160.771 155.164H194.057M160.771 155.164H127.486M70.9 60.7164H87.7806M87.7806 60.7164L82.1883 67.9291M87.7806 60.7164L95.8463 50.3136C98.4397 46.9686 103.404 46.8613 106.135 50.0912L127.486 75.3333M64.2429 67.4627L82.1883 67.9291M82.1883 67.9291L77.3194 74.209M57.5857 74.209H77.3194M77.3194 74.209L72.3135 80.6654M50.9286 84.3284L69.2757 84.5834M69.2757 84.5834L64.2429 91.0746M69.2757 84.5834L72.3135 80.6654M72.3135 80.6654V155.164M72.3135 155.164H127.486M127.486 155.164V75.3333M127.486 75.3333L140.8 91.0746M170.757 155.164V87.7015M170.757 121.433C170.757 121.433 178.793 123.409 180.743 121.433C182.693 119.457 182.291 120.194 184.071 118.06C186.452 115.206 188.262 115.52 190.729 114.687C193.195 113.853 195.741 111.273 197.386 107.94C198.713 105.25 197.897 98.1087 197.533 95.4573C197.441 94.7854 197.233 94.1392 196.934 93.5324L194.269 88.1303C194.128 87.8448 194.008 87.5503 193.905 87.2485C193.014 84.6333 191.234 80.0127 190.729 77.5821C189.763 72.9344 187.321 70.0973 184.071 67.4627C180.822 64.8281 174.086 64.0896 174.086 64.0896H165.672C164.638 64.0896 163.619 64.3334 162.694 64.8018L158.409 66.9731C157.769 67.2974 157.185 67.7241 156.679 68.2368L150.786 74.209M30.9572 124.806C30.9572 124.806 20.3235 126.782 18.3736 124.806C16.4238 122.83 16.8253 123.567 15.0451 121.433C12.6648 118.58 10.8543 118.893 8.38792 118.06C5.92155 117.227 3.37502 114.646 1.73077 111.313C0.403262 108.623 1.21934 101.482 1.583 98.8305C1.67516 98.1586 1.88303 97.5123 2.18239 96.9056L4.84776 91.5035C4.98864 91.2179 5.10843 90.9234 5.21123 90.6217C6.10227 88.0064 7.88298 83.3858 8.38792 80.9552C9.35345 76.3075 11.7953 73.4704 15.0451 70.8358C18.2948 68.2012 25.0308 67.4627 25.0308 67.4627H33.445C34.4784 67.4627 35.4977 67.7065 36.4221 68.1749L40.7074 70.3462C41.3474 70.6705 41.9316 71.0972 42.4375 71.6099L48.3308 77.5821M30.9572 104.567C30.9572 104.567 29.2929 101.194 24.3 101.194C21.9566 101.194 19.3071 97.8209 19.3071 97.8209M37.6143 155.164V114.687M37.6143 114.687V87.7015M37.6143 114.687H30.9572" stroke="white" stroke-width="2"/>
<path d="M273.199 196.126V225H269.699V196.126H273.199Z" fill="white"/>
<path d="M293.067 195.52H297.244L307.067 219.488H307.406L317.228 195.52H321.406V224.394H318.131V202.457H317.849L308.817 224.394H305.656L296.624 202.457H296.341V224.394H293.067V195.52Z" fill="white"/>
<path d="M363.987 209.957C363.987 213.002 363.437 215.634 362.336 217.852C361.235 220.07 359.725 221.781 357.806 222.984C355.887 224.187 353.695 224.788 351.229 224.788C348.764 224.788 346.572 224.187 344.653 222.984C342.734 221.781 341.224 220.07 340.123 217.852C339.022 215.634 338.471 213.002 338.471 209.957C338.471 206.912 339.022 204.28 340.123 202.062C341.224 199.844 342.734 198.133 344.653 196.93C346.572 195.727 348.764 195.125 351.229 195.125C353.695 195.125 355.887 195.727 357.806 196.93C359.725 198.133 361.235 199.844 362.336 202.062C363.437 204.28 363.987 206.912 363.987 209.957ZM360.6 209.957C360.6 207.457 360.182 205.347 359.344 203.627C358.516 201.907 357.392 200.605 355.971 199.722C354.56 198.838 352.979 198.396 351.229 198.396C349.479 198.396 347.894 198.838 346.473 199.722C345.062 200.605 343.938 201.907 343.101 203.627C342.273 205.347 341.859 207.457 341.859 209.957C341.859 212.457 342.273 214.567 343.101 216.287C343.938 218.007 345.062 219.309 346.473 220.192C347.894 221.076 349.479 221.518 351.229 221.518C352.979 221.518 354.56 221.076 355.971 220.192C357.392 219.309 358.516 218.007 359.344 216.287C360.182 214.567 360.6 212.457 360.6 209.957ZM349.705 192.588L353.149 186.046H357.044L352.641 192.588H349.705Z" fill="white"/>
<path d="M383.15 195.52L391.73 219.826H392.069L396.359 207.673L400.65 195.52H404.319L393.706 224.394H390.093L379.48 195.52H383.15Z" fill="white"/>
<path d="M419.084 224.394V209.957V195.52H436.527V198.622H422.584V208.378H435.624V211.48H422.584V221.292H436.753V224.394H419.084Z" fill="white"/>
<path d="M457.513 195.52V224.394H454.013V195.52H457.513Z" fill="white"/>
<path d="M493.637 202.739C493.468 201.31 492.781 200.201 491.577 199.411C490.372 198.622 488.895 198.227 487.145 198.227C485.866 198.227 484.746 198.434 483.786 198.847C482.836 199.261 482.093 199.83 481.557 200.553C481.03 201.277 480.766 202.099 480.766 203.021C480.766 203.791 480.95 204.454 481.317 205.008C481.693 205.554 482.173 206.009 482.756 206.376C483.34 206.733 483.951 207.029 484.591 207.264C485.231 207.49 485.819 207.673 486.355 207.814L489.29 208.604C490.043 208.801 490.881 209.073 491.803 209.421C492.734 209.769 493.623 210.244 494.47 210.845C495.326 211.437 496.032 212.199 496.587 213.129C497.142 214.06 497.419 215.202 497.419 216.555C497.419 218.115 497.01 219.525 496.192 220.785C495.383 222.044 494.197 223.045 492.635 223.788C491.083 224.53 489.196 224.901 486.976 224.901C484.906 224.901 483.114 224.568 481.599 223.9C480.094 223.233 478.908 222.302 478.043 221.109C477.186 219.915 476.702 218.529 476.589 216.95H480.202C480.296 218.04 480.663 218.942 481.303 219.657C481.952 220.362 482.77 220.888 483.758 221.236C484.756 221.574 485.828 221.743 486.976 221.743C488.312 221.743 489.512 221.527 490.575 221.095C491.638 220.653 492.48 220.042 493.101 219.262C493.722 218.472 494.032 217.551 494.032 216.499C494.032 215.54 493.764 214.76 493.228 214.158C492.692 213.557 491.986 213.068 491.111 212.692C490.236 212.316 489.291 211.987 488.274 211.705L484.718 210.69C482.46 210.042 480.672 209.116 479.355 207.913C478.038 206.71 477.379 205.135 477.379 203.19C477.379 201.573 477.817 200.163 478.692 198.96C479.576 197.748 480.762 196.808 482.248 196.141C483.744 195.464 485.414 195.125 487.258 195.125C489.121 195.125 490.777 195.459 492.226 196.126C493.675 196.784 494.823 197.687 495.669 198.833C496.526 199.98 496.977 201.282 497.024 202.739H493.637Z" fill="white"/>
<path d="M297.318 13.2557H306.068V64.856C306.068 69.4615 305.221 73.3738 303.528 76.5929C301.834 79.8121 299.447 82.2558 296.366 83.9241C293.284 85.5924 289.65 86.4266 285.464 86.4266C281.512 86.4266 277.996 85.7099 274.914 84.2766C271.833 82.8197 269.41 80.752 267.646 78.0732C265.882 75.3946 265 72.2107 265 68.5216H273.609C273.609 70.5658 274.115 72.3516 275.126 73.879C276.161 75.3828 277.572 76.5577 279.36 77.4036C281.147 78.2495 283.182 78.6724 285.464 78.6724C287.98 78.6724 290.121 78.1437 291.885 77.0864C293.649 76.029 294.99 74.4782 295.907 72.4339C296.848 70.3661 297.318 67.8401 297.318 64.856V13.2557Z" fill="white"/>
<path d="M345.196 86.5676C339.974 86.5676 335.47 85.4162 331.683 83.1134C327.92 80.7872 325.015 77.5446 322.968 73.3855C320.946 69.203 319.934 64.339 319.934 58.7937C319.934 53.2483 320.946 48.3608 322.968 44.1313C325.015 39.8783 327.861 36.5651 331.507 34.1919C335.176 31.7952 339.457 30.5968 344.349 30.5968C347.172 30.5968 349.959 31.0668 352.711 32.0066C355.463 32.9465 357.968 34.4739 360.226 36.5886C362.484 38.6799 364.284 41.4526 365.624 44.9067C366.965 48.3608 367.635 52.6138 367.635 57.6658V61.1904H325.861V54.0002H359.168C359.168 50.9455 358.556 48.2198 357.333 45.8231C356.133 43.4264 354.416 41.5348 352.182 40.1485C349.971 38.7621 347.36 38.069 344.349 38.069C341.033 38.069 338.163 38.8914 335.74 40.5362C333.341 42.1575 331.495 44.2723 330.201 46.8805C328.907 49.4887 328.261 52.2849 328.261 55.2691V60.0625C328.261 64.1511 328.966 67.6169 330.378 70.4601C331.812 73.2798 333.8 75.4298 336.34 76.9101C338.881 78.367 341.832 79.0954 345.196 79.0954C347.384 79.0954 349.359 78.7899 351.123 78.179C352.911 77.5446 354.452 76.6047 355.745 75.3593C357.039 74.0904 358.039 72.5161 358.744 70.6363L366.789 72.8921C365.942 75.6178 364.519 78.0145 362.519 80.0823C360.52 82.1265 358.05 83.7244 355.11 84.8757C352.17 86.0036 348.865 86.5676 345.196 86.5676Z" fill="white"/>
<path d="M388.628 52.8723V85.4397H380.302V31.3017H388.346V39.7608H389.052C390.322 37.0116 392.25 34.8028 394.838 33.1345C397.425 31.4427 400.765 30.5968 404.858 30.5968C408.527 30.5968 411.738 31.3487 414.49 32.8526C417.242 34.3329 419.382 36.5886 420.911 39.6198C422.44 42.6275 423.205 46.434 423.205 51.0395V85.4397H414.878V51.6035C414.878 47.3504 413.773 44.0373 411.561 41.6641C409.35 39.2673 406.316 38.069 402.459 38.069C399.801 38.069 397.425 38.6447 395.332 39.796C393.262 40.9474 391.627 42.6275 390.428 44.8362C389.228 47.045 388.628 49.7237 388.628 52.8723Z" fill="white"/>
<path d="M438.42 85.4397V31.3017H446.746V85.4397H438.42ZM442.654 22.2787C441.031 22.2787 439.631 21.7266 438.455 20.6222C437.303 19.5178 436.726 18.1902 436.726 16.6394C436.726 15.0885 437.303 13.7609 438.455 12.6566C439.631 11.5522 441.031 11 442.654 11C444.277 11 445.664 11.5522 446.817 12.6566C447.993 13.7609 448.581 15.0885 448.581 16.6394C448.581 18.1902 447.993 19.5178 446.817 20.6222C445.664 21.7266 444.277 22.2787 442.654 22.2787Z" fill="white"/>
<path d="M500.384 43.4264L492.904 45.5411C492.434 44.2958 491.74 43.0857 490.823 41.9108C489.929 40.7124 488.706 39.7255 487.153 38.9501C485.601 38.1747 483.613 37.787 481.191 37.787C477.874 37.787 475.11 38.5507 472.899 40.078C470.712 41.5818 469.618 43.4969 469.618 45.8231C469.618 47.8909 470.371 49.5239 471.876 50.7223C473.381 51.9207 475.734 52.9193 478.932 53.7182L486.977 55.692C491.822 56.8669 495.433 58.6644 497.808 61.0847C500.184 63.4814 501.372 66.5713 501.372 70.3544C501.372 73.456 500.478 76.2287 498.69 78.6724C496.926 81.1162 494.457 83.0429 491.281 84.4528C488.106 85.8626 484.413 86.5676 480.203 86.5676C474.675 86.5676 470.1 85.3692 466.478 82.9725C462.856 80.5757 460.562 77.0746 459.598 72.4691L467.501 70.4953C468.254 73.409 469.677 75.5943 471.77 77.0511C473.887 78.508 476.651 79.2364 480.062 79.2364C483.943 79.2364 487.024 78.414 489.305 76.7691C491.611 75.1008 492.763 73.1036 492.763 70.7773C492.763 68.8975 492.104 67.3232 490.787 66.0543C489.47 64.762 487.447 63.7986 484.719 63.1642L475.687 61.0494C470.724 59.8745 467.078 58.0535 464.749 55.5863C462.444 53.0955 461.291 49.9821 461.291 46.2461C461.291 43.1914 462.15 40.4892 463.867 38.1395C465.608 35.7897 467.972 33.9452 470.959 32.6058C473.969 31.2665 477.38 30.5968 481.191 30.5968C486.553 30.5968 490.764 31.7717 493.822 34.1214C496.903 36.4712 499.09 39.5728 500.384 43.4264Z" fill="white"/>
<path d="M552.293 43.4264L544.813 45.5411C544.342 44.2958 543.649 43.0857 542.731 41.9108C541.837 40.7124 540.614 39.7255 539.062 38.9501C537.509 38.1747 535.522 37.787 533.099 37.787C529.783 37.787 527.019 38.5507 524.808 40.078C522.62 41.5818 521.527 43.4969 521.527 45.8231C521.527 47.8909 522.279 49.5239 523.785 50.7223C525.29 51.9207 527.642 52.9193 530.841 53.7182L538.885 55.692C543.731 56.8669 547.341 58.6644 549.717 61.0847C552.093 63.4814 553.281 66.5713 553.281 70.3544C553.281 73.456 552.387 76.2287 550.599 78.6724C548.835 81.1162 546.365 83.0429 543.19 84.4528C540.014 85.8626 536.322 86.5676 532.111 86.5676C526.584 86.5676 522.009 85.3692 518.387 82.9725C514.764 80.5757 512.471 77.0746 511.507 72.4691L519.41 70.4953C520.162 73.409 521.586 75.5943 523.679 77.0511C525.796 78.508 528.56 79.2364 531.97 79.2364C535.851 79.2364 538.933 78.414 541.214 76.7691C543.519 75.1008 544.672 73.1036 544.672 70.7773C544.672 68.8975 544.013 67.3232 542.696 66.0543C541.379 64.762 539.356 63.7986 536.627 63.1642L527.595 61.0494C522.632 59.8745 518.986 58.0535 516.658 55.5863C514.353 53.0955 513.2 49.9821 513.2 46.2461C513.2 43.1914 514.059 40.4892 515.776 38.1395C517.516 35.7897 519.88 33.9452 522.867 32.6058C525.878 31.2665 529.289 30.5968 533.099 30.5968C538.462 30.5968 542.672 31.7717 545.73 34.1214C548.811 36.4712 550.999 39.5728 552.293 43.4264Z" fill="white"/>
<path d="M587.83 86.5676C582.938 86.5676 578.645 85.4044 574.952 83.0782C571.283 80.752 568.414 77.4976 566.344 73.315C564.297 69.1325 563.274 64.2451 563.274 58.6527C563.274 53.0133 564.297 48.0906 566.344 43.8846C568.414 39.6785 571.283 36.4124 574.952 34.0862C578.645 31.7599 582.938 30.5968 587.83 30.5968C592.723 30.5968 597.004 31.7599 600.673 34.0862C604.366 36.4124 607.236 39.6785 609.282 43.8846C611.352 48.0906 612.387 53.0133 612.387 58.6527C612.387 64.2451 611.352 69.1325 609.282 73.315C607.236 77.4976 604.366 80.752 600.673 83.0782C597.004 85.4044 592.723 86.5676 587.83 86.5676ZM587.83 79.0954C591.547 79.0954 594.605 78.1437 597.004 76.2405C599.403 74.3372 601.179 71.8347 602.331 68.733C603.484 65.6314 604.06 62.2713 604.06 58.6527C604.06 55.0341 603.484 51.6622 602.331 48.5371C601.179 45.4119 599.403 42.8859 597.004 40.9591C594.605 39.0324 591.547 38.069 587.83 38.069C584.114 38.069 581.056 39.0324 578.657 40.9591C576.258 42.8859 574.482 45.4119 573.33 48.5371C572.177 51.6622 571.601 55.0341 571.601 58.6527C571.601 62.2713 572.177 65.6314 573.33 68.733C574.482 71.8347 576.258 74.3372 578.657 76.2405C581.056 78.1437 584.114 79.0954 587.83 79.0954Z" fill="white"/>
<path d="M633.424 52.8723V85.4397H625.097V31.3017H633.141V39.7608H633.847C635.117 37.0116 637.046 34.8028 639.633 33.1345C642.221 31.4427 645.561 30.5968 649.653 30.5968C653.323 30.5968 656.533 31.3487 659.285 32.8526C662.037 34.3329 664.178 36.5886 665.707 39.6198C667.236 42.6275 668 46.434 668 51.0395V85.4397H659.673V51.6035C659.673 47.3504 658.568 44.0373 656.357 41.6641C654.146 39.2673 651.112 38.069 647.254 38.069C644.596 38.069 642.221 38.6447 640.127 39.796C638.057 40.9474 636.423 42.6275 635.223 44.8362C634.023 47.045 633.424 49.7237 633.424 52.8723Z" fill="white"/>
<path d="M269.699 171.459V99.2749H278.449V163.705H312.038V171.459H269.699Z" fill="white"/>
<path d="M358.61 149.324V117.321H366.937V171.459H358.61V162.295H358.045C356.775 165.044 354.799 167.382 352.118 169.309C349.437 171.212 346.05 172.164 341.957 172.164C338.57 172.164 335.559 171.424 332.925 169.943C330.29 168.439 328.22 166.184 326.715 163.176C325.21 160.145 324.457 156.327 324.457 151.721V117.321H332.784V151.157C332.784 155.105 333.889 158.253 336.1 160.603C338.335 162.953 341.181 164.128 344.638 164.128C346.708 164.128 348.813 163.599 350.954 162.542C353.118 161.484 354.929 159.863 356.387 157.678C357.869 155.492 358.61 152.708 358.61 149.324Z" fill="white"/>
<path d="M404.203 172.587C399.123 172.587 394.748 171.388 391.078 168.992C387.409 166.595 384.586 163.294 382.611 159.088C380.635 154.881 379.647 150.076 379.647 144.672C379.647 139.173 380.658 134.321 382.681 130.115C384.727 125.886 387.574 122.584 391.219 120.211C394.889 117.814 399.17 116.616 404.062 116.616C407.872 116.616 411.307 117.321 414.364 118.731C417.422 120.141 419.927 122.114 421.879 124.652C423.832 127.19 425.043 130.15 425.513 133.534H417.187C416.552 131.067 415.141 128.882 412.953 126.978C410.789 125.052 407.872 124.088 404.203 124.088C400.957 124.088 398.111 124.934 395.665 126.626C393.242 128.294 391.349 130.656 389.984 133.71C388.644 136.742 387.973 140.301 387.973 144.39C387.973 148.572 388.632 152.215 389.949 155.316C391.29 158.418 393.172 160.826 395.594 162.542C398.041 164.257 400.91 165.115 404.203 165.115C406.367 165.115 408.331 164.739 410.095 163.987C411.859 163.235 413.353 162.154 414.576 160.744C415.799 159.334 416.669 157.642 417.187 155.669H425.513C425.043 158.864 423.879 161.743 422.021 164.304C420.186 166.842 417.751 168.862 414.717 170.366C411.706 171.847 408.202 172.587 404.203 172.587Z" fill="white"/>
<path d="M445.448 151.721L445.307 141.429H447L470.71 117.321H481.012L455.75 142.839H455.045L445.448 151.721ZM437.686 171.459V99.2749H446.012V171.459H437.686ZM472.121 171.459L450.952 144.672L456.879 138.892L482.706 171.459H472.121Z" fill="white"/>
<path d="M504.007 171.459L487.495 117.321H496.245L507.959 158.77H508.523L520.096 117.321H528.987L540.418 158.629H540.983L552.696 117.321H561.446L544.934 171.459H536.749L524.894 129.869H524.047L512.193 171.459H504.007Z" fill="white"/>
<path d="M606.607 149.324V117.321H614.934V171.459H606.607V162.295H606.043C604.773 165.044 602.797 167.382 600.115 169.309C597.434 171.212 594.047 172.164 589.954 172.164C586.567 172.164 583.556 171.424 580.922 169.943C578.288 168.439 576.218 166.184 574.712 163.176C573.207 160.145 572.454 156.327 572.454 151.721V117.321H580.781V151.157C580.781 155.105 581.886 158.253 584.097 160.603C586.332 162.953 589.178 164.128 592.636 164.128C594.705 164.128 596.811 163.599 598.951 162.542C601.115 161.484 602.926 159.863 604.384 157.678C605.866 155.492 606.607 152.708 606.607 149.324ZM583.603 108.298C582.122 108.298 580.804 107.734 579.652 106.606C578.523 105.455 577.958 104.139 577.958 102.659C577.958 101.037 578.523 99.6979 579.652 98.6405C580.804 97.5596 582.122 97.0192 583.603 97.0192C585.226 97.0192 586.567 97.5596 587.626 98.6405C588.707 99.6979 589.248 101.037 589.248 102.659C589.248 104.139 588.707 105.455 587.626 106.606C586.567 107.734 585.226 108.298 583.603 108.298ZM603.926 108.298C602.444 108.298 601.127 107.734 599.974 106.606C598.845 105.455 598.281 104.139 598.281 102.659C598.281 101.037 598.845 99.6979 599.974 98.6405C601.127 97.5596 602.444 97.0192 603.926 97.0192C605.549 97.0192 606.889 97.5596 607.948 98.6405C609.03 99.6979 609.571 101.037 609.571 102.659C609.571 104.139 609.03 105.455 607.948 106.606C606.889 107.734 605.549 108.298 603.926 108.298Z" fill="white"/>
</svg>
